<?xml version="1.0" encoding="utf-8"?>
<!-- Generator: Adobe Illustrator 18.1.1, SVG Export Plug-In . SVG Version: 6.00 Build 0)  -->
<svg version="1.1" id="Calque_1" xmlns="http://www.w3.org/2000/svg" xmlns:xlink="http://www.w3.org/1999/xlink" x="0px" y="0px"
	 viewBox="0 0 35 35" enable-background="new 0 0 35 35" xml:space="preserve">
<circle fill="#0065A1" cx="17.5" cy="17.5" r="17.5"/>
<g>
	<path fill="#0065A1" d="M6.3,7.9C6.3,7,7.1,6.3,8,6.3H27c0.9,0,1.7,0.7,1.7,1.6v19.3c0,0.9-0.7,1.6-1.7,1.6H8
		c-0.9,0-1.7-0.7-1.7-1.6V7.9L6.3,7.9z"/>
	<path fill-rule="evenodd" clip-rule="evenodd" fill="#FFFFFF" d="M13.1,25.1V14.9H9.7v10.2H13.1L13.1,25.1z M11.4,13.5
		c1.2,0,1.9-0.8,1.9-1.8c0-1-0.7-1.8-1.9-1.8s-1.9,0.8-1.9,1.8C9.5,12.8,10.3,13.5,11.4,13.5L11.4,13.5L11.4,13.5z"/>
	<path fill-rule="evenodd" clip-rule="evenodd" fill="#FFFFFF" d="M15,25.1h3.4v-5.7c0-0.3,0-0.6,0.1-0.8c0.2-0.6,0.8-1.2,1.7-1.2
		c1.2,0,1.7,0.9,1.7,2.3v5.4h3.4v-5.8c0-3.1-1.7-4.6-3.9-4.6c-1.8,0-2.6,1-3.1,1.7h0v-1.5H15C15,15.9,15,25.1,15,25.1L15,25.1z"/>
</g>
</svg>
